<svg width="38" height="38" viewBox="0 0 38 38" fill="none" xmlns="http://www.w3.org/2000/svg">
<path d="M34.2826 25.6087H3.71737C3.03329 25.6087 2.47821 25.054 2.47821 24.3695V3.71739C2.47821 1.66755 4.14576 0 6.1956 0H31.8043C33.8541 0 35.5217 1.66755 35.5217 3.71739V24.3696C35.5217 25.054 34.9667 25.6087 34.2826 25.6087Z" fill="#DAE1E6"/>
<path d="M31.8044 0H19V25.6087H34.2826C34.9667 25.6087 35.5218 25.054 35.5218 24.3695V3.71739C35.5218 1.66755 33.8542 0 31.8044 0Z" fill="#C9D3D9"/>
<path d="M36.7608 38H1.23916C0.555082 38 0 37.4454 0 36.7608V24.3696C0 23.6851 0.555082 23.1304 1.23916 23.1304H36.7609C37.445 23.1304 38.0001 23.6851 38.0001 24.3696V36.7609C38 37.4454 37.4449 38 36.7608 38Z" fill="#EDF0F2"/>
<path d="M36.7608 23.1304H19V38H36.7608C37.4449 38 38 37.4454 38 36.7608V24.3696C38 23.6851 37.4449 23.1304 36.7608 23.1304Z" fill="#DAE1E6"/>
<path d="M21.8913 33.0435C21.2072 33.0435 20.6522 32.4888 20.6522 31.8043V29.3261C20.6522 28.6415 21.2072 28.0869 21.8913 28.0869C22.5754 28.0869 23.1305 28.6415 23.1305 29.3261V31.8043C23.1304 32.4888 22.5754 33.0435 21.8913 33.0435Z" fill="#3DB1CC"/>
<path d="M26.8478 33.0435C26.1637 33.0435 25.6086 32.4888 25.6086 31.8043V29.3261C25.6086 28.6415 26.1637 28.0869 26.8478 28.0869C27.5319 28.0869 28.087 28.6415 28.087 29.3261V31.8043C28.087 32.4888 27.5319 33.0435 26.8478 33.0435Z" fill="#3DB1CC"/>
<path d="M31.8043 33.0435C31.1203 33.0435 30.5652 32.4888 30.5652 31.8043V29.3261C30.5652 28.6415 31.1203 28.0869 31.8043 28.0869C32.4884 28.0869 33.0435 28.6415 33.0435 29.3261V31.8043C33.0434 32.4888 32.4884 33.0435 31.8043 33.0435Z" fill="#3DB1CC"/>
<path d="M16.9348 31.8044H6.19564C5.51156 31.8044 4.95648 31.2497 4.95648 30.5652C4.95648 29.8807 5.51156 29.326 6.19564 29.326H16.9348C17.6189 29.326 18.174 29.8807 18.174 30.5652C18.174 31.2497 17.6189 31.8044 16.9348 31.8044Z" fill="#57C3D9"/>
<path d="M29.3261 20.6522H8.67397C7.9899 20.6522 7.43481 20.0976 7.43481 19.413V6.19564C7.43481 5.51112 7.9899 4.95648 8.67397 4.95648H29.3261C30.0102 4.95648 30.5652 5.51112 30.5652 6.19564V19.413C30.5652 20.0976 30.0102 20.6522 29.3261 20.6522Z" fill="#736056"/>
<path d="M29.3261 4.95654H19V20.6522H29.3261C30.0101 20.6522 30.5652 20.0975 30.5652 19.413V6.19562C30.5652 5.51118 30.0102 4.95654 29.3261 4.95654Z" fill="#665247"/>
</svg>
